# xmcd
#
# Track frame offsets:
#	150
#	11752
#	23780
#	40217
#	54255
#	70275
#	87770
#	100860
#	116035
#	132305
#
# Disc length: 1923 seconds
#
# Revision: 1
# Processed by: cddbd v1.5.2PL0 Copyright (c) Steve Scherf et al.
# Submitted via: audiograbber 1.83.01
#
DISCID=7e07810a
DTITLE=Exile - Hang on to Your Heart
DYEAR=1984
DGENRE=Country
TTITLE0=Promises, Promises
TTITLE1=I Could Get Used to You
TTITLE2=Hnag on to Your Heart
TTITLE3=She Likes Her Lovin'
TTITLE4=Music
TTITLE5=I Got Love (Super-Duper Love)
TTITLE6=It'll Be Me
TTITLE7=Practice Makes Perfect
TTITLE8=She's Too Good to Be True
TTITLE9=Proud to Be Her Man
EXTD=
EXTT0=
EXTT1=
EXTT2=
EXTT3=
EXTT4=
EXTT5=
EXTT6=
EXTT7=
EXTT8=
EXTT9=
PLAYORDER=
